# xmcd
#
# Track frame offsets: 
#        150
#        25322
#        53989
#        83360
#        101495
#        123012
#        145377
#        151920
#        173925
#        204355
#        236637
#
# Disc length: 3289 seconds
#
# Revision: 0
# Processed by: cddbd v1.4PL0 Copyright (c) Steve Scherf et al.
# Submitted via: ExactAudioCopy v0.90a11
#
DISCID=850cd70b
DTITLE=Bobby Chan - Poppy Roses
DYEAR=1900
DGENRE=
TTITLE0=Taste of Life
TTITLE1=Little Man
TTITLE2=Serenade of Shooting Stars
TTITLE3=Big Blue Cat
TTITLE4=Christine
TTITLE5=Poppy Roses
TTITLE6=Taste of Salt Fish
TTITLE7=The Shadow
TTITLE8=The Orange Drum
TTITLE9="A" Train To Heaven
TTITLE10=Black Light
EXTD=
EXTT0=
EXTT1=
EXTT2=
EXTT3=
EXTT4=
EXTT5=
EXTT6=
EXTT7=
EXTT8=
EXTT9=
EXTT10=
PLAYORDER=
